<?xml version="1.0" standalone="no"?>
<!DOCTYPE svg PUBLIC "-//W3C//DTD SVG 20010904//EN"
 "http://www.w3.org/TR/2001/REC-SVG-20010904/DTD/svg10.dtd">
<svg version="1.0" xmlns="http://www.w3.org/2000/svg"
 width="2000.000000pt" height="2000.000000pt" viewBox="0 0 2000.000000 2000.000000"
 preserveAspectRatio="xMidYMid meet">
<metadata>
Created by potrace 1.11, written by Peter Selinger 2001-2013
</metadata>
<g transform="translate(0.000000,2000.000000) scale(0.100000,-0.100000)"
fill="#000000" stroke="none">
<path d="M1880 19989 c-720 -97 -1312 -505 -1638 -1129 -51 -97 -118 -249
-126 -285 -2 -5 -14 -48 -29 -95 -30 -99 -63 -257 -74 -356 -10 -89 -10
-16157 0 -16246 32 -291 147 -622 300 -867 42 -67 173 -247 205 -279 9 -10 38
-41 63 -68 330 -354 814 -597 1298 -652 88 -9 16156 -9 16245 1 227 25 486
103 701 210 460 229 836 636 1023 1107 30 75 87 253 96 300 3 14 12 59 20 101
8 42 19 105 23 140 10 81 11 16161 1 16249 -4 36 -10 76 -13 90 -3 14 -8 41
-11 60 -28 178 -124 447 -221 623 -41 73 -121 200 -150 237 -181 232 -339 381
-553 523 -213 141 -505 261 -745 306 -60 11 -126 24 -145 28 -49 11 -16190 13
-16270 2z"/>
</g>
</svg>
