<svg xmlns="http://www.w3.org/2000/svg" width="189" height="71" viewBox="0 0 189 71">
  <g fill="none" fill-rule="evenodd">
    <g transform="translate(68)">
      <path fill="#252525" d="M0,7 L52,7 L52,71 L7.99683765,71 C3.58030617,71 0,67.421945 0,62.9914846 L0,7 Z"/>
      <path stroke="#252525" d="M51.5,0.5 L51.5,1 L51.5,6 L51.5,6.5 L0.5,6.5 L0.5,3.00925446 C0.5,1.6208508 1.61637272,0.5 3.0014819,0.5 L51.5,0.5 Z"/>
      <path fill="#FFF" d="M1,3.5 C1,2.11928813 2.12354551,1 3.50135631,1 L52.5,1 L52.5,6 L1,6 L1,3.5 Z"/>
      <g fill="#FFF" transform="translate(12 24)">
        <polygon points="13 0 13 22 29 22"/>
        <polygon points="11 22 .5 22 11 2"/>
        <path d="M2,24.5 L26,24.5 L26,26 L24,26 L24,28 L23,28 L23,29 L6,29 L6,28 L5,28 L5,27 L4,27 L4,26 L2,26 L2,25 L2,24.5 Z"/>
      </g>
    </g>
    <path fill="#252525" d="M0,7 L52,7 L52,71 L7.99683765,71 C3.58030617,71 0,67.421945 0,62.9914846 L0,7 Z"/>
    <path stroke="#252525" d="M51.5,0.5 L51.5,1 L51.5,6 L51.5,6.5 L0.5,6.5 L0.5,3.00925446 C0.5,1.6208508 1.61637272,0.5 3.0014819,0.5 L51.5,0.5 Z"/>
    <path fill="#FFF" d="M1,3.5 C1,2.11928813 2.12354551,1 3.50135631,1 L52.5,1 L52.5,6 L1,6 L1,3.5 Z"/>
    <g fill="#FFF" transform="translate(11 25)">
      <path d="M14,9 L10,12 L10,26 L11,26 L11,28 L13,28 L13,26 L14,26 L14,19 L25,19 L25,21 L27,21 L27,24 L28,24 L28,27 L29,27 L29,28 L31,28 L31,22 L30,22 L30,18 L28.5,18 L28.5,14 L27,14 L27,10 L28,10 L28,8 L26,8 L26,9 L14,9 Z"/>
      <polygon points="7 0 10 0 10 1 11 1 11 3 10 3 10 5 11 5 11 6 12 6 12 7 13 7 13 9 11 9 11 10 10 10 10 11 8 11 8 10 6 10 6 11 5 11 5 12 4 12 4 13 2 13 2 12 1 12 1 11 0 11 0 8 1 8 1 7 2 7 7 2"/>
    </g>
    <g transform="translate(136)">
      <path fill="#252525" d="M0,7 L52,7 L52,71 L7.99683765,71 C3.58030617,71 0,67.421945 0,62.9914846 L0,7 Z"/>
      <path stroke="#252525" d="M51.5,0.5 L51.5,1 L51.5,6 L51.5,6.5 L0.5,6.5 L0.5,3.00925446 C0.5,1.6208508 1.61637272,0.5 3.0014819,0.5 L51.5,0.5 Z"/>
      <path fill="#FFF" d="M1,3.5 C1,2.11928813 2.12354551,1 3.50135631,1 L52.5,1 L52.5,6 L1,6 L1,3.5 Z"/>
      <g fill="#FFF" transform="translate(13 23)">
        <g transform="rotate(45 6.672 16.328)">
          <path d="M0,12.2652582 C0,8.87830068 2.75256335,6.13262911 6.13262911,6.13262911 L12.2652582,6.13262911 L12.2652582,18.3978873 L6.13262911,18.3978873 C2.74567158,18.3978873 0,15.645324 0,12.2652582 L0,12.2652582 Z"/>
          <path d="M6.13262911,6.12623008 C6.13262911,2.74280663 8.88519246,0 12.2652582,0 L12.2652582,0 C15.6522157,0 18.3978873,2.75434962 18.3978873,6.12623008 L18.3978873,18.3978873 L6.13262911,18.3978873 L6.13262911,6.12623008 Z"/>
        </g>
      </g>
    </g>
  </g>
</svg>
